<?xml version="1.0" encoding="UTF-8" standalone="no"?>
<!-- Created with Inkscape (http://www.inkscape.org/) -->

<svg
   width="95.335999mm"
   height="30.476313mm"
   viewBox="0 0 95.335999 30.476313"
   version="1.1"
   id="svg5"
   xml:space="preserve"
   inkscape:version="1.2.2 (732a01da63, 2022-12-09, custom)"
   sodipodi:docname="find-us-on-biasshield.svg"
   xmlns:inkscape="http://www.inkscape.org/namespaces/inkscape"
   xmlns:sodipodi="http://sodipodi.sourceforge.net/DTD/sodipodi-0.dtd"
   xmlns="http://www.w3.org/2000/svg"
   xmlns:svg="http://www.w3.org/2000/svg"><sodipodi:namedview
     id="namedview7"
     pagecolor="#ffffff"
     bordercolor="#666666"
     borderopacity="1.0"
     inkscape:showpageshadow="2"
     inkscape:pageopacity="0.0"
     inkscape:pagecheckerboard="0"
     inkscape:deskcolor="#d1d1d1"
     inkscape:document-units="mm"
     showgrid="false"
     inkscape:zoom="0.81638692"
     inkscape:cx="235.79506"
     inkscape:cy="159.85067"
     inkscape:window-width="1600"
     inkscape:window-height="792"
     inkscape:window-x="0"
     inkscape:window-y="27"
     inkscape:window-maximized="1"
     inkscape:current-layer="layer1" /><defs
     id="defs2" /><g
     inkscape:label="Layer 1"
     inkscape:groupmode="layer"
     id="layer1"
     transform="translate(-35.589759,-77.223151)"><rect
       style="fill:#ffffff;fill-opacity:1;stroke:#000000;stroke-width:0.517;stroke-linejoin:round;stroke-miterlimit:40;stroke-dasharray:none;stroke-opacity:1;paint-order:markers fill stroke"
       id="rect493"
       width="94.819"
       height="29.959312"
       x="35.848259"
       y="77.481651"
       ry="5.5673771" /><g
       id="g7800"
       transform="matrix(0.03426797,0,0,0.03426797,38.973502,83.482014)"
       style="fill:#b50000;fill-opacity:1"><path
         d="m 476.08,322.96 c 8.8281,-18.332 13.922,-38.785 13.922,-60.457 0,-21.672 -5.0898,-42.105 -13.91,-60.43 -17.137,6.8633 -34.562,12.691 -52.418,16.652 1.4844,14.348 2.293,29.062 2.293,43.781 0,14.77 -0.8125,29.535 -2.3047,43.93 17.852,3.9297 35.305,9.7031 52.422,16.523 z"
         id="path7780"
         style="fill:#b50000;fill-opacity:1" /><path
         d="m 383.96,189.72 c -8.8672,-42.754 -24.18,-67.219 -33.965,-67.219 -9.785,0 -25.098,24.465 -33.965,67.219 22.57,2.5039 45.359,2.5039 67.93,0 z"
         id="path7782"
         style="fill:#b50000;fill-opacity:1" /><path
         d="m 389.11,224.45 c -12.914,1.4805 -25.941,2.3516 -39.109,2.3516 -13.168,0 -26.195,-0.87109 -39.109,-2.3516 -1.1484,11.848 -1.8555,24.484 -1.8555,38.051 0,13.633 0.71484,26.328 1.8711,38.227 25.977,-2.9766 52.211,-2.9766 78.188,0 1.1602,-11.898 1.8711,-24.594 1.8711,-38.227 0,-13.566 -0.70703,-26.203 -1.8555,-38.051 z"
         id="path7784"
         style="fill:#b50000;fill-opacity:1" /><path
         d="m 316.04,335.28 c 8.8672,42.758 24.18,67.223 33.965,67.223 9.785,0 25.098,-24.465 33.965,-67.223 -22.57,-2.5039 -45.359,-2.5039 -67.93,0 z"
         id="path7786"
         style="fill:#b50000;fill-opacity:1" /><path
         d="m 418.46,183.78 c 12.977,-2.9648 25.707,-6.9961 38.262,-11.672 -14.52,-17.113 -33.051,-30.684 -54.148,-39.27 6.7188,14.656 12.055,31.992 15.891,50.941 z"
         id="path7788"
         style="fill:#b50000;fill-opacity:1" /><path
         d="m 274.04,262.5 c 0,-14.719 0.80859,-29.434 2.293,-43.781 -17.859,-3.9609 -35.281,-9.7891 -52.418,-16.652 -8.8203,18.324 -13.91,38.77 -13.91,60.43 0,21.66 5.0938,42.125 13.922,60.457 17.117,-6.8242 34.566,-12.598 52.422,-16.523 -1.4922,-14.395 -2.3047,-29.16 -2.3047,-43.93 z"
         id="path7790"
         style="fill:#b50000;fill-opacity:1" /><path
         d="m 281.54,183.78 c 3.8359,-18.945 9.168,-36.285 15.891,-50.941 -21.102,8.5859 -39.629,22.156 -54.148,39.27 12.555,4.6758 25.285,8.7031 38.262,11.672 z"
         id="path7792"
         style="fill:#b50000;fill-opacity:1" /><path
         d="m 418.46,341.22 c -3.8359,18.945 -9.168,36.285 -15.891,50.941 21.102,-8.5859 39.629,-22.156 54.148,-39.273 -12.555,-4.6758 -25.285,-8.7031 -38.262,-11.672 z"
         id="path7794"
         style="fill:#b50000;fill-opacity:1" /><path
         d="m 577.5,69.984 c -28.949,0 -52.5,-23.551 -52.5,-52.5 0,-9.6758 -7.8281,-17.5 -17.5,-17.5 h -315 c -9.6719,0 -17.5,7.8242 -17.5,17.5 0,28.949 -23.551,52.5 -52.5,52.5 -9.6719,0 -17.5,7.8281 -17.5,17.5 v 206.02 c 0,38.008 7.6562,73.078 22.781,104.25 13.09,26.984 30.949,50.637 53.098,70.309 64.926,57.73 145.47,91.926 168.91,91.926 h 0.41016 c 23.465,0 103.99,-34.195 168.91,-91.91 22.148,-19.688 40.008,-43.34 53.098,-70.324 15.125,-31.172 22.781,-66.242 22.781,-104.25 l 0.004,-206.02 c 0,-9.6719 -7.8281,-17.5 -17.5,-17.5 z m -77.27,281.8 c -0.0586,0.13672 -0.0352,0.28516 -0.0977,0.41797 -0.66016,1.4453 -1.543,2.7109 -2.5117,3.875 -31.078,48.848 -85.562,81.422 -147.62,81.422 -63.125,0 -118.38,-33.715 -149.17,-83.969 -0.28125,-0.48438 -0.72656,-0.80859 -0.96484,-1.3281 -0.0625,-0.13672 -0.0391,-0.28125 -0.0977,-0.41797 -15.621,-26.18 -24.77,-56.648 -24.77,-89.285 0,-32.637 9.1445,-63.105 24.77,-89.285 0.0586,-0.13672 0.0352,-0.28516 0.0977,-0.41797 0.23438,-0.51562 0.67969,-0.83984 0.96094,-1.3164 30.785,-50.258 86.051,-83.977 149.18,-83.977 63.129,0 118.39,33.719 149.17,83.973 0.27734,0.48047 0.72266,0.80469 0.96094,1.3203 0.0625,0.13672 0.0391,0.28125 0.0977,0.41797 15.621,26.18 24.77,56.648 24.77,89.285 0,32.637 -9.1445,63.105 -24.77,89.285 z"
         id="path7796"
         style="fill:#b50000;fill-opacity:1" /><path
         d="m 281.54,341.22 c -12.977,2.9648 -25.707,6.9961 -38.262,11.672 14.52,17.113 33.051,30.684 54.148,39.273 -6.7188,-14.656 -12.055,-31.992 -15.891,-50.941 z"
         id="path7798"
         style="fill:#b50000;fill-opacity:1" /></g><g
       aria-label="Bias Shield"
       id="text385"
       style="font-size:10.5833px;line-height:1.25;font-family:'Noto Sans CJK HK';-inkscape-font-specification:'Noto Sans CJK HK';stroke-width:0.264583"><path
         d="m 65.806327,100.90223 h 2.793991 c 1.725078,0 3.037407,-0.73025 3.037407,-2.30716 0,-1.05833 -0.624415,-1.650995 -1.471079,-1.852077 v -0.05292 c 0.666748,-0.232833 1.068913,-0.973664 1.068913,-1.693328 0,-1.460495 -1.227662,-1.936744 -2.836324,-1.936744 h -2.592908 z m 1.566328,-4.646069 V 94.2665 h 0.93133 c 0.941914,0 1.407579,0.275166 1.407579,0.963081 0,0.624414 -0.433915,1.02658 -1.428745,1.02658 z m 0,3.439572 V 97.40974 h 1.09008 c 1.079496,0 1.650995,0.328083 1.650995,1.09008 0,0.814914 -0.582082,1.195913 -1.650995,1.195913 z"
         style="font-weight:bold"
         id="path6210" /><path
         d="m 72.886552,100.90223 h 1.555745 v -5.926648 h -1.555745 z m 0.783164,-6.879145 c 0.529165,0 0.89958,-0.338666 0.89958,-0.857248 0,-0.507998 -0.370415,-0.846664 -0.89958,-0.846664 -0.539749,0 -0.910164,0.338666 -0.910164,0.846664 0,0.518582 0.370415,0.857248 0.910164,0.857248 z"
         style="font-weight:bold"
         id="path6212" /><path
         d="m 77.564358,101.0504 c 0.677331,0 1.269996,-0.33867 1.788578,-0.78317 h 0.04233 l 0.105833,0.635 h 1.269996 v -3.46074 c 0,-1.714494 -0.772581,-2.614075 -2.275409,-2.614075 -0.931331,0 -1.777995,0.349249 -2.476493,0.783164 l 0.560915,1.026581 c 0.550332,-0.317499 1.079497,-0.560915 1.629829,-0.560915 0.730247,0 0.984246,0.444498 1.015996,1.02658 -2.391825,0.253999 -3.418406,0.920747 -3.418406,2.190743 0,1.005412 0.698498,1.756832 1.756828,1.756832 z m 0.507999,-1.217084 c -0.455082,0 -0.783165,-0.201083 -0.783165,-0.666748 0,-0.529165 0.486832,-0.93133 1.936744,-1.111246 v 1.195913 c -0.380999,0.370415 -0.709081,0.582081 -1.153579,0.582081 z"
         style="font-weight:bold"
         id="path6214" /><path
         d="m 84.051917,101.0504 c 1.545162,0 2.360076,-0.83609 2.360076,-1.873249 0,-1.100663 -0.867831,-1.492245 -1.650995,-1.788577 -0.624414,-0.232833 -1.174746,-0.391582 -1.174746,-0.825498 0,-0.338665 0.253999,-0.571498 0.793748,-0.571498 0.433915,0 0.846663,0.201083 1.269995,0.507999 l 0.698498,-0.941914 c -0.486832,-0.370415 -1.153579,-0.730248 -2.010827,-0.730248 -1.354662,0 -2.211909,0.751415 -2.211909,1.809745 0,0.99483 0.83608,1.449912 1.587495,1.735661 0.624414,0.243416 1.238246,0.444498 1.238246,0.888997 0,0.370415 -0.264583,0.624415 -0.857248,0.624415 -0.550331,0 -1.05833,-0.232833 -1.587495,-0.645582 l -0.709081,0.973659 c 0.592665,0.48684 1.460496,0.83609 2.254243,0.83609 z"
         style="font-weight:bold"
         id="path6216" /><path
         d="m 92.465621,101.0504 c 1.809744,0 2.878657,-1.090084 2.878657,-2.370664 0,-1.132413 -0.624414,-1.735661 -1.576911,-2.127243 l -1.02658,-0.433915 c -0.666748,-0.264583 -1.21708,-0.465665 -1.21708,-1.02658 0,-0.518582 0.433916,-0.825498 1.12183,-0.825498 0.645581,0 1.164163,0.232833 1.661578,0.645582 l 0.793748,-0.984247 c -0.634998,-0.645581 -1.545162,-1.005414 -2.455326,-1.005414 -1.587495,0 -2.709325,0.984247 -2.709325,2.264827 0,1.142996 0.793748,1.777994 1.587495,2.106076 l 1.047747,0.444499 c 0.698498,0.296332 1.174746,0.476248 1.174746,1.05833 0,0.550331 -0.433915,0.89958 -1.248829,0.89958 -0.687915,0 -1.428746,-0.349249 -1.989661,-0.86783 l -0.89958,1.079496 c 0.761998,0.730251 1.809744,1.143001 2.857491,1.143001 z"
         style="font-weight:bold"
         id="path6218" /><path
         d="m 96.603678,100.90223 h 1.555745 v -4.074571 c 0.433915,-0.433915 0.740831,-0.666748 1.227663,-0.666748 0.582081,0 0.836084,0.317499 0.836084,1.238246 v 3.503073 h 1.55574 v -3.693572 c 0,-1.492246 -0.55033,-2.381243 -1.830909,-2.381243 -0.804331,0 -1.386413,0.423332 -1.862661,0.867831 l 0.07408,-1.111247 v -2.127243 h -1.555745 z"
         style="font-weight:bold"
         id="path6220" /><path
         d="m 103.37698,100.90223 h 1.55575 v -5.926648 h -1.55575 z m 0.78317,-6.879145 c 0.52916,0 0.89958,-0.338666 0.89958,-0.857248 0,-0.507998 -0.37042,-0.846664 -0.89958,-0.846664 -0.53975,0 -0.91017,0.338666 -0.91017,0.846664 0,0.518582 0.37042,0.857248 0.91017,0.857248 z"
         style="font-weight:bold"
         id="path6222" /><path
         d="m 109.17662,101.0504 c 0.73025,0 1.48166,-0.254 2.06374,-0.65617 l -0.52916,-0.952496 c -0.42333,0.264582 -0.84667,0.412749 -1.3335,0.412749 -0.87841,0 -1.51341,-0.507999 -1.64041,-1.481662 h 3.65124 c 0.0423,-0.137583 0.0741,-0.423332 0.0741,-0.719665 0,-1.629828 -0.84666,-2.825741 -2.47649,-2.825741 -1.40758,0 -2.76224,1.195913 -2.76224,3.11149 0,1.957911 1.29116,3.111495 2.95274,3.111495 z m -1.4605,-3.714743 c 0.11642,-0.857247 0.66675,-1.301746 1.29117,-1.301746 0.76199,0 1.12183,0.507999 1.12183,1.301746 z"
         style="font-weight:bold"
         id="path6224" /><path
         d="m 114.20368,101.0504 c 0.37042,0 0.62442,-0.0635 0.80433,-0.13759 l -0.1905,-1.153577 c -0.10583,0.02117 -0.14816,0.02117 -0.21166,0.02117 -0.14817,0 -0.30692,-0.116417 -0.30692,-0.476249 v -6.847395 h -1.55574 v 6.783895 c 0,1.100656 0.38099,1.809746 1.46049,1.809746 z"
         style="font-weight:bold"
         id="path6226" /><path
         d="m 118.16182,101.0504 c 0.61383,0 1.2065,-0.33867 1.64041,-0.762 h 0.0423 l 0.11642,0.61383 h 1.25941 v -8.445474 h -1.54516 v 2.08491 l 0.0529,0.931331 c -0.42333,-0.391582 -0.83608,-0.645582 -1.50283,-0.645582 -1.28058,0 -2.48708,1.18533 -2.48708,3.11149 0,1.947328 0.9525,3.111495 2.42358,3.111495 z m 0.40217,-1.280584 c -0.78317,0 -1.22767,-0.613831 -1.22767,-1.841494 0,-1.185329 0.56092,-1.820327 1.22767,-1.820327 0.37041,0 0.75141,0.116416 1.11124,0.444498 v 2.603492 c -0.34925,0.444498 -0.6985,0.613831 -1.11124,0.613831 z"
         style="font-weight:bold"
         id="path6228" /></g><g
       aria-label="FIND US ON"
       id="text389"
       style="font-size:6.96156px;line-height:1.25;font-family:'Noto Sans CJK HK';-inkscape-font-specification:'Noto Sans CJK HK';stroke-width:0.174039"><path
         d="m 66.430745,88.778481 h 0.647425 v -2.290354 h 1.949236 V 85.945126 H 67.07817 v -1.726467 h 2.297314 v -0.549963 h -2.944739 z"
         id="path6231" /><path
         d="m 70.273513,88.778481 h 0.647425 v -5.109785 h -0.647425 z"
         id="path6233" /><path
         d="m 72.313244,88.778481 h 0.612618 V 86.09828 c 0,-0.53604 -0.04873,-1.079042 -0.07658,-1.594197 h 0.02785 l 0.549963,1.051195 1.858736,3.223203 h 0.661348 v -5.109785 h -0.612617 v 2.659315 c 0,0.529079 0.04873,1.099927 0.08354,1.615082 h -0.03481 L 74.84029,86.891898 72.981554,83.668696 h -0.66831 z"
         id="path6235" /><path
         d="m 77.339478,88.778481 h 1.308773 c 1.538505,0 2.380854,-0.953734 2.380854,-2.568816 0,-1.622043 -0.842349,-2.540969 -2.4087,-2.540969 h -1.280927 z m 0.647425,-0.529079 v -4.051628 h 0.577809 c 1.20435,0 1.796083,0.717041 1.796083,2.011891 0,1.287889 -0.591733,2.039737 -1.796083,2.039737 z"
         id="path6237" /><path
         d="m 85.491446,88.868981 c 1.044234,0 1.837852,-0.556925 1.837852,-2.199853 v -3.000432 h -0.619579 v 3.021317 c 0,1.232196 -0.53604,1.615081 -1.218273,1.615081 -0.661348,0 -1.183465,-0.382885 -1.183465,-1.615081 v -3.021317 h -0.647425 v 3.000432 c 0,1.642928 0.793618,2.199853 1.83089,2.199853 z"
         id="path6239" /><path
         d="m 90.044287,88.868981 c 1.065119,0 1.733428,-0.640464 1.733428,-1.448005 0,-0.75881 -0.459463,-1.106888 -1.051195,-1.364465 L 89.995556,85.74324 c -0.396809,-0.167077 -0.842349,-0.355039 -0.842349,-0.84931 0,-0.459463 0.375925,-0.751848 0.953734,-0.751848 0.473386,0 0.84931,0.187962 1.16258,0.480347 l 0.341117,-0.410732 c -0.362001,-0.375924 -0.898041,-0.633502 -1.503697,-0.633502 -0.925887,0 -1.60812,0.570848 -1.60812,1.357505 0,0.744886 0.563886,1.106888 1.037272,1.308773 l 0.737925,0.320232 c 0.480348,0.215808 0.849311,0.382885 0.849311,0.905002 0,0.501233 -0.403771,0.835387 -1.07208,0.835387 -0.529079,0 -1.044234,-0.250616 -1.406236,-0.633501 l -0.389847,0.438578 c 0.44554,0.466424 1.065119,0.75881 1.789121,0.75881 z"
         id="path6241" /><path
         d="m 96.226133,88.868981 c 1.280927,0 2.178968,-1.023349 2.178968,-2.659316 0,-1.635967 -0.898041,-2.63147 -2.178968,-2.63147 -1.280927,0 -2.178968,0.995503 -2.178968,2.63147 0,1.635967 0.898041,2.659316 2.178968,2.659316 z m 0,-0.563887 c -0.918926,0 -1.51762,-0.821464 -1.51762,-2.095429 0,-1.280927 0.598694,-2.067583 1.51762,-2.067583 0.911964,0 1.51762,0.786656 1.51762,2.067583 0,1.273965 -0.605656,2.095429 -1.51762,2.095429 z"
         id="path6243" /><path
         d="m 99.505017,88.778481 h 0.612613 V 86.09828 c 0,-0.53604 -0.0487,-1.079042 -0.0766,-1.594197 h 0.0278 l 0.54997,1.051195 1.85873,3.223203 h 0.66135 v -5.109785 h -0.61262 v 2.659315 c 0,0.529079 0.0487,1.099927 0.0835,1.615082 h -0.0348 l -0.543,-1.051195 -1.85873,-3.223202 h -0.668313 z"
         id="path6245" /></g></g></svg>
