<?xml version="1.0" encoding="UTF-8" standalone="no"?>
<svg
   width="560.005pt"
   height="560.005pt"
   version="1.1"
   viewBox="0 0 560.00501 560.005"
   id="svg7802"
   sodipodi:docname="shield.svg"
   inkscape:version="1.2.2 (b0a8486541, 2022-12-01, custom)"
   inkscape:export-filename="../18c508c8/shield-big.png"
   inkscape:export-xdpi="64.285141"
   inkscape:export-ydpi="64.285141"
   xmlns:inkscape="http://www.inkscape.org/namespaces/inkscape"
   xmlns:sodipodi="http://sodipodi.sourceforge.net/DTD/sodipodi-0.dtd"
   xmlns="http://www.w3.org/2000/svg"
   xmlns:svg="http://www.w3.org/2000/svg">
  <defs
     id="defs7806" />
  <sodipodi:namedview
     id="namedview7804"
     pagecolor="#ffffff"
     bordercolor="#666666"
     borderopacity="1.0"
     inkscape:showpageshadow="2"
     inkscape:pageopacity="0.0"
     inkscape:pagecheckerboard="0"
     inkscape:deskcolor="#d1d1d1"
     inkscape:document-units="pt"
     showgrid="false"
     inkscape:zoom="0.74142857"
     inkscape:cx="223.21773"
     inkscape:cy="364.83622"
     inkscape:window-width="1556"
     inkscape:window-height="836"
     inkscape:window-x="44"
     inkscape:window-y="27"
     inkscape:window-maximized="1"
     inkscape:current-layer="svg7802" />
  <g
     id="g7800"
     transform="translate(-69.993578,0.016)"
     style="fill:#b50000;fill-opacity:1">
    <path
       d="m 476.08,322.96 c 8.8281,-18.332 13.922,-38.785 13.922,-60.457 0,-21.672 -5.0898,-42.105 -13.91,-60.43 -17.137,6.8633 -34.562,12.691 -52.418,16.652 1.4844,14.348 2.293,29.062 2.293,43.781 0,14.77 -0.8125,29.535 -2.3047,43.93 17.852,3.9297 35.305,9.7031 52.422,16.523 z"
       id="path7780"
       style="fill:#b50000;fill-opacity:1" />
    <path
       d="m 383.96,189.72 c -8.8672,-42.754 -24.18,-67.219 -33.965,-67.219 -9.785,0 -25.098,24.465 -33.965,67.219 22.57,2.5039 45.359,2.5039 67.93,0 z"
       id="path7782"
       style="fill:#b50000;fill-opacity:1" />
    <path
       d="m 389.11,224.45 c -12.914,1.4805 -25.941,2.3516 -39.109,2.3516 -13.168,0 -26.195,-0.87109 -39.109,-2.3516 -1.1484,11.848 -1.8555,24.484 -1.8555,38.051 0,13.633 0.71484,26.328 1.8711,38.227 25.977,-2.9766 52.211,-2.9766 78.188,0 1.1602,-11.898 1.8711,-24.594 1.8711,-38.227 0,-13.566 -0.70703,-26.203 -1.8555,-38.051 z"
       id="path7784"
       style="fill:#b50000;fill-opacity:1" />
    <path
       d="m 316.04,335.28 c 8.8672,42.758 24.18,67.223 33.965,67.223 9.785,0 25.098,-24.465 33.965,-67.223 -22.57,-2.5039 -45.359,-2.5039 -67.93,0 z"
       id="path7786"
       style="fill:#b50000;fill-opacity:1" />
    <path
       d="m 418.46,183.78 c 12.977,-2.9648 25.707,-6.9961 38.262,-11.672 -14.52,-17.113 -33.051,-30.684 -54.148,-39.27 6.7188,14.656 12.055,31.992 15.891,50.941 z"
       id="path7788"
       style="fill:#b50000;fill-opacity:1" />
    <path
       d="m 274.04,262.5 c 0,-14.719 0.80859,-29.434 2.293,-43.781 -17.859,-3.9609 -35.281,-9.7891 -52.418,-16.652 -8.8203,18.324 -13.91,38.77 -13.91,60.43 0,21.66 5.0938,42.125 13.922,60.457 17.117,-6.8242 34.566,-12.598 52.422,-16.523 -1.4922,-14.395 -2.3047,-29.16 -2.3047,-43.93 z"
       id="path7790"
       style="fill:#b50000;fill-opacity:1" />
    <path
       d="m 281.54,183.78 c 3.8359,-18.945 9.168,-36.285 15.891,-50.941 -21.102,8.5859 -39.629,22.156 -54.148,39.27 12.555,4.6758 25.285,8.7031 38.262,11.672 z"
       id="path7792"
       style="fill:#b50000;fill-opacity:1" />
    <path
       d="m 418.46,341.22 c -3.8359,18.945 -9.168,36.285 -15.891,50.941 21.102,-8.5859 39.629,-22.156 54.148,-39.273 -12.555,-4.6758 -25.285,-8.7031 -38.262,-11.672 z"
       id="path7794"
       style="fill:#b50000;fill-opacity:1" />
    <path
       d="m 577.5,69.984 c -28.949,0 -52.5,-23.551 -52.5,-52.5 0,-9.6758 -7.8281,-17.5 -17.5,-17.5 h -315 c -9.6719,0 -17.5,7.8242 -17.5,17.5 0,28.949 -23.551,52.5 -52.5,52.5 -9.6719,0 -17.5,7.8281 -17.5,17.5 v 206.02 c 0,38.008 7.6562,73.078 22.781,104.25 13.09,26.984 30.949,50.637 53.098,70.309 64.926,57.73 145.47,91.926 168.91,91.926 h 0.41016 c 23.465,0 103.99,-34.195 168.91,-91.91 22.148,-19.688 40.008,-43.34 53.098,-70.324 15.125,-31.172 22.781,-66.242 22.781,-104.25 l 0.004,-206.02 c 0,-9.6719 -7.8281,-17.5 -17.5,-17.5 z m -77.27,281.8 c -0.0586,0.13672 -0.0352,0.28516 -0.0977,0.41797 -0.66016,1.4453 -1.543,2.7109 -2.5117,3.875 -31.078,48.848 -85.562,81.422 -147.62,81.422 -63.125,0 -118.38,-33.715 -149.17,-83.969 -0.28125,-0.48438 -0.72656,-0.80859 -0.96484,-1.3281 -0.0625,-0.13672 -0.0391,-0.28125 -0.0977,-0.41797 -15.621,-26.18 -24.77,-56.648 -24.77,-89.285 0,-32.637 9.1445,-63.105 24.77,-89.285 0.0586,-0.13672 0.0352,-0.28516 0.0977,-0.41797 0.23438,-0.51562 0.67969,-0.83984 0.96094,-1.3164 30.785,-50.258 86.051,-83.977 149.18,-83.977 63.129,0 118.39,33.719 149.17,83.973 0.27734,0.48047 0.72266,0.80469 0.96094,1.3203 0.0625,0.13672 0.0391,0.28125 0.0977,0.41797 15.621,26.18 24.77,56.648 24.77,89.285 0,32.637 -9.1445,63.105 -24.77,89.285 z"
       id="path7796"
       style="fill:#b50000;fill-opacity:1" />
    <path
       d="m 281.54,341.22 c -12.977,2.9648 -25.707,6.9961 -38.262,11.672 14.52,17.113 33.051,30.684 54.148,39.273 -6.7188,-14.656 -12.055,-31.992 -15.891,-50.941 z"
       id="path7798"
       style="fill:#b50000;fill-opacity:1" />
  </g>
</svg>
